<svg width="2822" height="404" viewBox="0 0 2822 404" fill="none" xmlns="http://www.w3.org/2000/svg">
<path d="M0.832031 384.19C6.4987 386.19 20.432 388.99 30.832 384.19C34.832 381.523 43.732 377.29 47.332 381.69C52.332 383.357 63.332 386.19 67.332 384.19H71.332C68.9987 380.523 64.332 372.39 64.332 369.19C62.332 362.69 58.332 348.99 58.332 348.19C58.332 347.19 57.832 355.19 47.332 357.19C45.1654 356.857 41.632 355.39 44.832 352.19C46.9987 349.523 51.732 342.49 53.332 335.69C53.9987 333.523 55.632 328.99 56.832 328.19C58.032 327.39 58.332 325.19 58.332 324.19C52.1654 323.69 40.332 319.79 42.332 308.19C43.6654 302.357 49.932 292.29 64.332 298.69C68.9987 302.357 75.232 312.29 62.832 322.69L64.332 324.19C69.9987 323.857 82.232 325.09 85.832 332.69C88.832 334.857 95.032 337.99 93.832 339.19C92.332 340.69 88.332 342.69 81.832 339.19C86.332 349.357 94.532 370.49 91.332 373.69L90.332 374.69L109.332 367.69C106.999 360.357 102.232 344.39 101.832 339.19C100.499 333.69 97.632 322.69 96.832 322.69C96.032 322.69 94.4987 331.357 93.832 335.69L87.332 331.19C86.832 323.023 86.932 305.89 91.332 302.69C92.1654 300.69 94.432 296.49 96.832 295.69C99.232 294.89 97.832 293.69 96.832 293.19C90.1654 292.857 77.332 288.69 79.332 274.69C80.9987 270.023 86.832 261.39 96.832 264.19C102.165 265.19 111.732 270.89 107.332 285.69C106.499 287.357 104.232 290.79 101.832 291.19V293.19C106.665 293.69 116.632 295.49 117.832 298.69C118.08 299.352 118.247 299.84 118.351 300.19M118.351 300.19C118.751 301.533 118.229 300.851 117.832 300.19H118.351ZM118.351 300.19H120.832C121.999 295.69 124.832 287.59 126.832 291.19C127.999 296.523 129.632 307.79 126.832 310.19C125.969 310.929 125.527 311.403 125.363 311.69M125.363 311.69C124.994 312.334 126.025 312.036 126.832 311.69H125.363ZM125.363 311.69H116.332C123.499 325.357 136.932 354.19 133.332 360.19C129.732 366.19 131.832 363.69 133.332 361.69L165.832 353.69C162.665 348.523 156.632 336.79 157.832 331.19L140.332 328.19C140.832 311.19 142.432 275.89 144.832 270.69C140.499 277.523 131.332 291.19 129.332 291.19C126.832 291.19 125.332 289.69 124.832 285.69C126.832 273.69 133.132 247.29 142.332 237.69C144.332 235.69 148.832 231.49 150.832 230.69C153.332 229.69 151.832 223.69 148.332 223.19C141.832 222.023 128.432 216.09 126.832 201.69C127.665 193.523 132.732 177.39 146.332 178.19C153.665 177.19 168.932 179.39 171.332 196.19C172.665 202.19 172.432 215.59 160.832 221.19C160.499 222.857 160.432 226.39 162.832 227.19C169.665 226.69 187.632 230.19 204.832 248.19C207.999 250.357 214.832 255.09 216.832 256.69C219.999 260.19 224.432 267.19 216.832 267.19C210.165 267.023 194.932 265.69 187.332 261.69C194.499 278.19 208.432 311.69 206.832 313.69L197.332 320.69C198.165 329.69 199.332 347.99 197.332 349.19H235.832C234.832 327.19 233.632 281.29 236.832 273.69L238.832 237.69C234.617 247.857 225.515 267.39 222.832 264.19L216.832 252.69C220.999 231.69 233.932 190.09 252.332 191.69H258.332V188.19C249.665 184.19 234.932 171.49 245.332 152.69C250.165 146.523 263.332 136.29 277.332 144.69C287.499 151.69 300.732 170.19 272.332 188.19V191.69C280.332 192.857 297.232 199.99 300.832 219.19C303.832 230.19 309.632 254.59 308.832 264.19C307.332 266.19 303.632 269.59 300.832 267.19C297.481 264.318 284.505 240.361 284.284 233.5M284.284 233.5C284.274 233.195 284.289 232.924 284.332 232.69L284.284 233.5ZM284.284 233.5L281.332 283.19C280.502 305.767 277.754 350.633 273.384 350.197M273.384 350.197C273.367 350.195 273.349 350.193 273.332 350.19L273.384 350.197ZM273.384 350.197L308.832 355.19C308.332 351.357 308.332 341.79 312.332 334.19C309.165 331.357 303.432 325.39 305.832 324.19L336.332 273.69C328.165 274.575 311.232 275.415 308.832 271.69C307.332 269.69 305.932 265.39 312.332 264.19C318.832 262.857 334.532 260.59 345.332 262.19H351.332C352.499 262.357 354.732 262.09 354.332 259.69C349.999 255.19 343.332 243.49 351.332 232.69C355.165 228.357 365.732 221.99 377.332 231.19C380.999 236.19 386.132 247.99 377.332 255.19C374.332 258.357 366.932 264.19 361.332 262.19C359.999 261.857 357.732 261.79 359.332 264.19C367.832 269.357 385.432 283.99 387.832 301.19C388.832 306.19 389.032 314.49 381.832 307.69L365.332 287.19C363.665 305.023 359.732 340.89 357.332 341.69C356.165 343.023 353.332 345.29 351.332 343.69C348.832 341.69 345.332 367.19 340.832 365.69L379.332 379.69C372.665 368.857 362.632 343.49 375.832 328.69C380.499 335.523 389.432 350.69 387.832 356.69H394.832C394.165 354.69 393.232 349.99 394.832 347.19C390.332 344.69 383.432 337.79 391.832 330.19H394.832C396.499 325.69 401.632 318.69 408.832 326.69C414.665 325.19 425.032 324.99 419.832 336.19C422.665 340.69 425.632 350.39 414.832 353.19C412.665 356.69 406.632 362.99 399.832 360.19L391.832 372.69C396.832 369.357 409.132 363.69 418.332 367.69C414.332 374.523 403.032 386.99 389.832 382.19C404.499 387.69 445.632 390.69 492.832 358.69C499.665 340.023 513.532 302.69 514.332 302.69C515.332 302.69 500.332 273.69 502.332 249.19C495.165 248.357 480.332 238.69 478.332 206.69C477.332 197.357 477.732 175.69 487.332 163.69C489.332 156.69 494.632 142.69 499.832 142.69H504.832C506.999 132.023 512.432 110.49 516.832 109.69L583.332 127.19L601.832 131.69C604.332 132.19 607.832 136.49 601.832 149.69L587.332 195.69C585.665 196.19 580.232 196.29 571.832 192.69L502.332 168.69C500.665 168.69 497.832 167.69 499.832 163.69C499.832 160.523 498.932 157.09 495.332 168.69C493.832 177.523 491.732 196.99 495.332 204.19C496.832 210.023 500.332 221.79 502.332 222.19L510.332 223.69C516.499 233.857 531.432 253.69 541.832 251.69L544.832 247.69C540.832 247.357 532.232 244.79 529.832 237.19C527.165 239.19 522.232 239.29 523.832 223.69C518.165 225.69 508.332 227.39 514.332 218.19L518.832 212.19C518.165 210.357 517.832 206.69 521.832 206.69C518.499 205.023 513.232 201.39 518.832 200.19C524.432 198.99 524.499 196.69 523.832 195.69C522.999 192.69 522.532 187.29 527.332 189.69L535.832 186.69L587.332 200.19C591.165 199.857 597.932 200.19 594.332 204.19C594.116 204.43 593.917 204.647 593.733 204.843M593.733 204.843C590.864 207.912 591.892 205.756 592.832 204.19C593.113 204.377 593.417 204.596 593.733 204.843ZM593.733 204.843C596.234 206.799 599.463 210.494 597.332 213.69H591.332C593.332 217.357 596.132 225.19 591.332 227.19C592.165 232.19 592.532 242.09 587.332 241.69C582.132 241.29 584.165 241.523 585.832 241.69C582.832 244.69 576.332 249.79 574.332 246.19C573.165 248.857 570.232 253.69 567.832 251.69C565.432 249.69 566.165 251.523 566.832 252.69C574.499 252.523 590.132 255.79 591.332 270.19L594.332 288.19L608.832 264.69C603.999 263.19 596.032 257.39 602.832 246.19C598.165 240.69 593.932 227.39 614.332 218.19C614.332 213.523 615.232 203.79 618.832 202.19C618.665 198.023 619.832 190.29 625.832 192.69C629.499 184.357 641.332 170.19 659.332 180.19C663.832 183.857 672.932 192.99 673.332 200.19C677.832 200.523 686.532 202.29 685.332 206.69C686.665 209.523 688.532 215.49 685.332 216.69C685.165 219.023 685.332 223.69 687.332 223.69C689.832 223.69 694.332 220.19 707.332 195.69L719.832 165.19C719.499 162.69 718.432 156.59 716.832 152.19C714.832 146.69 711.332 144.69 716.832 141.69L712.332 130.19L668.832 144.69L648.332 84.1899L741.332 52.1899L763.832 110.69L719.832 127.19L722.832 139.19C726.165 138.357 733.132 138.69 734.332 146.69C735.499 150.357 736.732 157.79 732.332 158.19C729.165 172.857 722.232 202.19 719.832 202.19C712.999 218.857 695.132 254.69 678.332 264.69C681.499 271.023 686.332 288.19 680.332 306.19V326.19C683.665 342.023 690.732 373.69 692.332 373.69C693.932 373.69 696.665 375.69 697.832 376.69C697.832 372.523 697.432 362.79 695.832 357.19C694.165 346.357 690.832 324.49 690.832 323.69C690.832 322.69 688.832 319.69 697.832 300.69L702.832 288.19C701.499 287.357 700.032 284.49 704.832 279.69C708.332 272.69 718.632 259.29 731.832 261.69C736.832 261.357 746.832 259.59 746.832 255.19V247.69C745.499 248.857 742.032 250.49 738.832 247.69L736.332 244.69C732.499 245.023 726.232 244.39 731.832 239.19C729.165 237.19 725.732 232.59 733.332 230.19C733.665 220.857 736.832 202.19 746.832 202.19C752.999 199.69 766.932 197.59 773.332 209.19C774.999 212.357 778.132 219.69 777.332 223.69C779.999 227.857 784.932 236.29 783.332 236.69C781.332 237.19 781.332 245.69 777.332 243.19C774.499 247.023 768.332 253.99 766.332 251.19C765.165 251.69 763.032 253.89 763.832 258.69C764.832 259.69 767.332 261.39 769.332 260.19L771.332 258.69C777.499 255.523 790.832 249.59 794.832 251.19C805.165 247.19 826.732 238.29 830.332 234.69C829.999 218.19 828.932 184.69 827.332 182.69L820.332 177.19C819.499 176.523 818.332 174.19 820.332 170.19V161.69C811.165 168.69 792.432 182.69 790.832 182.69C788.832 182.69 754.832 141.69 755.332 139.19C754.665 137.69 755.932 133.19 766.332 127.19L817.832 88.1899C819.332 86.6899 823.132 84.7899 826.332 89.1899L858.332 127.19C858.832 129.19 858.432 133.79 852.832 136.19L827.332 156.19V158.19C829.999 157.523 835.532 157.29 836.332 161.69L840.832 167.19C841.332 168.857 842.032 172.39 840.832 173.19C839.632 173.99 845.665 181.523 848.832 185.19C849.665 187.857 849.832 192.39 843.832 189.19L842.332 191.19C846.665 205.523 854.532 236.29 851.332 244.69C842.665 252.19 819.732 268.69 797.332 274.69V278.19L786.832 283.19C789.499 290.357 794.032 305.99 790.832 311.19C789.999 314.19 788.032 320.19 786.832 320.19C785.332 320.19 784.832 350.19 787.832 356.19L790.832 376.69C794.332 379.023 806.332 381.79 826.332 374.19C829.165 372.023 837.632 368.59 848.832 372.19C853.499 374.523 865.732 378.19 877.332 374.19C891.832 369.19 922.832 372.19 927.832 376.69V230.19C926.832 229.023 924.632 227.39 923.832 230.19C922.832 233.69 923.832 285.19 923.832 287.19C923.832 289.19 910.332 292.19 912.332 281.19V230.19C912.49 223.418 915.475 210.425 925.928 209.69M925.928 209.69C926.537 209.647 927.171 209.646 927.832 209.69C939.832 210.49 931.563 210.023 925.928 209.69ZM946.332 209.69V203.69C940.665 201.357 930.132 193.49 933.332 180.69C935.499 176.023 942.332 167.49 952.332 170.69C956.999 171.357 966.032 176.39 964.832 191.19C963.499 194.857 959.132 202.49 952.332 203.69V209.69H978.332C980.999 210.857 986.332 214.89 986.332 221.69L988.332 284.19C986.999 286.857 982.732 290.59 976.332 284.19L974.832 230.19C973.499 229.023 970.732 228.79 970.332 237.19V376.69C971.165 380.023 975.532 385.69 986.332 381.69C988.665 376.69 995.432 367.69 1003.83 371.69L1015.33 381.69C1020.78 383.293 1032.3 385.512 1036.38 382.123M1036.38 382.123C1036.54 381.987 1036.69 381.843 1036.83 381.69C1040.43 377.69 1038.33 381.023 1036.83 383.19C1036.69 382.875 1036.54 382.517 1036.38 382.123ZM1036.38 382.123C1035.02 378.755 1033.12 372.771 1033.83 369.19V289.69L1005.83 288.19L1035.33 186.19C1034.17 183.69 1031.33 180.59 1029.33 188.19L1009.33 247.69C1003.67 250.023 992.832 251.19 994.832 237.19C1002.5 211.357 1018.83 159.49 1022.83 158.69C1025 155.69 1033.93 150.39 1052.33 153.19C1053.5 151.69 1055.13 148.29 1052.33 146.69C1045.67 144.19 1033.23 134.99 1036.83 118.19C1039.83 110.69 1050.03 97.5899 1066.83 105.19C1072.33 107.19 1082.43 115.39 1078.83 132.19C1076.67 137.023 1070.33 146.69 1062.33 146.69C1061.83 148.857 1061.43 153.19 1063.83 153.19C1071.67 152.357 1088.23 152.29 1091.83 158.69C1095.43 165.09 1094 162.023 1092.83 159.69C1095.33 163.357 1100.83 171.69 1102.83 175.69L1112.33 249.69C1107.33 248.023 1095.13 232.49 1086.33 183.69C1084.83 182.857 1081.73 181.69 1081.33 183.69C1080.93 185.69 1082.5 186.19 1083.33 186.19L1099.83 252.69L1112.33 288.19H1083.33V373.69C1097.83 377.19 1127.83 382.39 1131.83 375.19C1135.83 367.99 1132.17 372.19 1129.83 375.19V166.19H1124.33C1125.5 196.19 1125.33 254.89 1115.33 249.69L1104.33 172.69C1103.17 160.19 1106.03 134.89 1126.83 133.69L1154.83 132.19C1155.5 131.023 1156.43 128.29 1154.83 126.69C1146.67 123.023 1131.43 111.69 1135.83 95.6899C1137.83 89.3565 1145.23 76.9899 1158.83 78.1899C1165.5 78.1899 1179.73 81.6899 1183.33 95.6899C1184.67 104.19 1183.13 121.99 1166.33 125.19C1166.67 128.023 1167.93 133.69 1170.33 133.69H1194.33C1200.17 134.857 1212.23 140.09 1213.83 151.69C1214.5 152.69 1215.83 156.49 1215.83 163.69V243.19C1213.33 247.523 1206.63 253.89 1199.83 244.69V166.19H1190.33V372.19C1192 374.857 1197.63 379.69 1206.83 377.69C1206.67 376.857 1207.83 375.19 1213.83 375.19C1218 377.357 1226.93 381.29 1229.33 379.69L1233.33 377.69V321.69H1215.83L1234.83 257.19H1231.83L1218.83 296.19C1215.83 297.523 1209.73 298.59 1209.33 292.19C1213.67 274.69 1223.73 239.29 1229.33 237.69H1244.33L1245.83 232.69C1240.83 230.023 1232.53 221.89 1239.33 210.69C1242.5 207.19 1251.13 202.29 1260.33 210.69C1263.33 215.023 1266.83 225.09 1256.83 230.69L1251.33 232.69L1253.33 237.69C1258.83 237.357 1270.23 237.99 1271.83 243.19L1289.33 292.19C1288.67 294.857 1286.03 299.39 1280.83 296.19L1266.83 255.69H1263.83L1282.33 321.69H1263.83L1264.83 376.19C1264.5 377.357 1263.13 379.69 1260.33 379.69C1264.91 380.759 1275.29 382.22 1282.84 380.302M1282.84 380.302C1283.53 380.127 1284.2 379.924 1284.83 379.69C1290.17 379.023 1300.33 376.19 1298.33 370.19C1297.67 366.19 1294.03 359.39 1284.83 364.19C1283.19 368.652 1281.83 375.055 1282.84 380.302ZM1282.84 380.302C1283.99 386.226 1288.15 390.675 1298.33 389.19C1301.15 389.852 1307.44 388.509 1310.27 377.917M1310.27 377.917C1310.29 377.842 1310.31 377.766 1310.33 377.69M1310.27 377.917C1309.14 382.322 1308.44 390.797 1314.33 391.19C1316.44 390.909 1321.02 387.345 1324.81 375.961M1324.81 375.961C1325.52 373.823 1326.2 371.409 1326.83 368.69L1329.83 355.19C1326.67 345.19 1320.83 331.79 1322.83 358.19L1324.81 375.961ZM1324.81 375.961L1326.83 394.19L1334.83 395.69C1336.2 391.163 1337.98 384.917 1339.6 378.612M1339.6 378.612C1342.51 367.274 1344.87 355.746 1343.33 353.69C1337.78 343.779 1330.22 336.871 1339.6 378.612ZM1339.6 378.612C1340.63 383.197 1341.87 388.37 1343.33 394.19C1346.67 396.19 1354.73 399.29 1360.33 395.69C1360.49 395.59 1360.64 395.495 1360.78 395.405M1360.78 395.405C1365.75 392.261 1362.6 395.245 1360.33 397.19C1360.4 396.636 1360.55 396.028 1360.78 395.405ZM1360.78 395.405C1362.23 391.529 1367.12 387.055 1378.83 391.19C1388.83 393.023 1411.03 393.29 1419.83 379.69C1427.17 362.357 1440.93 326.49 1437.33 321.69C1433.5 321.023 1425.63 319.29 1424.83 317.69C1423.83 315.69 1428.83 356.19 1410.83 358.19C1402.33 360.857 1383.03 363.39 1373.83 352.19L1369.33 343.69C1362.83 344.357 1349.93 344.09 1350.33 337.69C1351.33 334.69 1353.73 328.69 1355.33 328.69C1356.93 328.69 1355 327.023 1353.83 326.19C1350.83 325.523 1346.23 322.59 1351.83 316.19V313.69C1348.83 313.023 1344.33 310.69 1350.33 306.69V304.19C1347.17 302.357 1343.03 297.39 1351.83 292.19C1349.67 281.857 1347.33 261.09 1355.33 260.69C1366.17 256.69 1394.23 249.59 1419.83 253.19C1421.54 254.857 1424.93 264.39 1424.83 289.19C1428.17 290.19 1435.33 292.19 1437.33 292.19C1439.83 292.19 1437.83 267.69 1431.33 259.19L1417.83 238.69C1416 237.357 1413.43 232.39 1417.83 223.19C1420 214.19 1424.03 195.69 1422.83 193.69C1421.63 191.69 1435.67 180.19 1442.83 174.69C1444 173.357 1447.13 171.09 1450.33 172.69L1465.33 174.69V177.69C1467 176.19 1471.13 173.79 1474.33 176.19C1475.83 178.023 1476.43 182.69 1466.83 186.69C1470.33 187.19 1475.83 192.39 1469.83 209.19C1469.33 212.19 1468.63 219.19 1469.83 223.19C1474.33 235.19 1482.43 261.59 1478.83 271.19C1477.17 275.69 1474.33 286.19 1476.33 292.19C1479.04 311.788 1483.79 351.311 1482.11 359.293M1482.11 359.293C1482.03 359.661 1481.94 359.961 1481.83 360.19C1481.92 359.894 1482.01 359.595 1482.11 359.293ZM1482.11 359.293C1491.24 329.496 1511.43 270.858 1521.33 267.69C1526.17 260.857 1538.03 246.59 1546.83 244.19C1543.67 237.19 1535.13 222.29 1526.33 218.69L1521.33 213.69C1512.67 215.523 1494.73 216.39 1492.33 205.19L1486.83 186.69C1492.5 180.857 1500.43 167.39 1486.83 160.19L1481.83 156.19V146.19C1479.5 142.19 1476.23 133.79 1481.83 132.19C1486.67 130.19 1497.23 124.89 1500.83 119.69C1503.33 108.523 1509.83 85.8899 1515.83 84.6899C1511.17 82.3565 1498.83 81.2899 1486.83 95.6899C1488 88.6899 1494.73 75.6899 1512.33 79.6899C1507.33 76.8565 1495.03 74.0899 1485.83 85.6899C1485.5 79.8565 1491.03 69.6899 1515.83 75.6899C1516.33 72.5232 1518.53 66.2899 1523.33 66.6899C1527 59.3565 1535.93 45.2899 1542.33 47.6899C1543 45.8565 1545.93 43.2899 1552.33 47.6899C1553.67 46.1899 1557.43 44.0899 1561.83 47.6899C1564.83 47.6899 1570.93 48.5899 1571.33 52.1899L1578.33 56.6899C1583.33 49.3565 1597.43 41.0899 1613.83 66.6899L1628.83 81.1899C1641.67 87.1899 1665.63 103.29 1658.83 119.69C1658.5 123.857 1657.03 132.19 1653.83 132.19C1660 133.19 1673.43 139.89 1677.83 158.69C1680.17 165.19 1684.73 179.09 1684.33 182.69C1686.83 191.19 1692.73 208.19 1696.33 208.19C1700.83 216.523 1707.73 234.29 1699.33 238.69C1695.83 242.523 1687.93 249.79 1684.33 248.19C1682.5 249.857 1677.83 252.69 1673.83 250.69C1681.17 256.69 1697.73 272.19 1705.33 286.19C1712 293.857 1725.23 311.29 1724.83 319.69C1724.5 322.357 1722.83 326.89 1718.83 323.69C1719.17 330.357 1718.93 343.79 1715.33 344.19C1713.17 349.523 1707.73 359.99 1703.33 359.19C1699.17 362.352 1689.56 367.277 1684.35 361.711M1684.35 361.711C1684.35 361.704 1684.34 361.697 1684.33 361.69C1679.13 356.09 1681.17 359.357 1682.83 361.69C1683.19 361.73 1683.71 361.745 1684.35 361.711ZM1684.35 361.711C1686.39 361.605 1689.69 361.013 1693.33 359.19C1690.17 358.69 1684.33 356.79 1686.33 353.19C1679.83 357.523 1666.93 363.99 1667.33 355.19C1662 359.523 1651.13 366.89 1650.33 361.69L1645.83 381.69C1666.5 386.19 1710.43 393.09 1720.83 384.69C1738.17 381.857 1768.23 378.89 1749.83 389.69C1747 393.357 1748.53 398.49 1777.33 389.69C1813.33 378.69 1804.33 402.19 1816.33 388.19L1819.33 381.69C1817.17 380.523 1813.03 375.89 1813.83 366.69L1819.33 260.69V164.19C1817.33 162.857 1812.93 160.99 1811.33 164.19L1800.33 238.69C1798.33 243.357 1792.13 251.29 1783.33 245.69C1781.5 244.19 1778.03 240.29 1778.83 236.69L1792.83 146.69C1794.67 137.523 1803.13 119.29 1822.33 119.69H1840.33L1843.33 108.69C1833.33 105.357 1816.03 93.1899 1826.83 71.1899C1831.33 64.6899 1844.23 54.1899 1859.83 64.1899C1864.5 66.6899 1873.53 74.7899 1872.33 87.1899C1871.43 94.0155 1866.96 107.871 1856.33 108.69L1858.33 119.69H1874.33C1879.83 120.357 1891.83 123.49 1895.83 130.69C1898.17 132.857 1904.23 144.69 1909.83 174.69L1923.33 241.69C1922.67 247.69 1917.93 257.59 1904.33 249.19L1886.33 166.69C1885.5 164.19 1882.53 160.19 1877.33 164.19L1885.33 372.69C1885.33 375.69 1884.13 381.69 1879.33 381.69C1894 386.69 1924.43 393.69 1928.83 381.69C1930.67 379.523 1934.53 376.49 1935.33 381.69C1937 382.523 1941.13 383.69 1944.33 381.69C1943 380.523 1940.73 375.39 1942.33 364.19L1948.83 314.19V266.69C1947.67 265.19 1941.23 261.29 1924.83 257.69C1926.17 255.357 1928.83 249.29 1928.83 243.69L1953.33 249.19H1964.33C1965.5 248.69 1967.13 246.49 1964.33 241.69C1958 239.357 1946.33 231.09 1950.33 216.69C1953.83 211.19 1963.23 201.49 1972.83 206.69C1977.5 208.357 1986.63 214.39 1985.83 225.19C1985.5 230.023 1982.43 240.09 1972.83 241.69C1971.83 243.19 1970.43 246.79 1972.83 249.19L1981.33 250.69L2007.33 238.69C2009.54 243.736 2014.28 253.199 2016.48 252.848M2016.48 252.848C2016.61 252.828 2016.72 252.776 2016.83 252.69L2016.48 252.848ZM2016.48 252.848L1985.83 266.69V307.19C1986.17 311.69 1987.33 323.59 1989.33 335.19L1996.33 375.19C1996.83 378.19 1996.63 384.19 1991.83 384.19C1999.33 387.19 2016.23 391.39 2023.83 384.19C2028.33 381.523 2038.93 377.29 2045.33 381.69C2047 382.19 2051.03 382.39 2053.83 379.19C2052.5 377.523 2050.23 372.79 2051.83 367.19L2057.33 249.19V164.69C2056.17 163.19 2052.93 161.09 2049.33 164.69L2036.33 243.19C2031 246.19 2019.63 249.49 2016.83 238.69L2029.83 156.69C2031.17 144.857 2038.53 120.89 2057.33 119.69H2075.83C2076.83 117.523 2078.23 112.49 2075.83 109.69C2063.5 114.857 2039.33 122.59 2041.33 112.19C2046.5 97.1899 2058.73 66.6899 2066.33 64.6899C2074.17 59.6899 2092.73 53.0899 2104.33 66.6899C2113.83 77.8565 2132.53 101.39 2131.33 106.19C2122 111.69 2101.33 120.09 2093.33 109.69C2092.67 111.69 2091.73 116.09 2093.33 117.69C2101.67 117.523 2119.23 117.99 2122.83 121.19C2129.17 124.357 2142.23 135.89 2143.83 156.69L2160.83 243.19C2158.33 248.523 2150.73 256.79 2140.33 247.19L2123.33 168.69C2122.83 165.357 2120.83 159.89 2116.83 164.69V237.19L2119.83 303.69L2123.33 375.19C2123 378.357 2121.23 384.39 2116.83 383.19C2127.17 387.357 2151.33 393.89 2165.33 386.69C2170.83 383.357 2182.73 377.69 2186.33 381.69C2187.33 384.523 2193.03 389.49 2207.83 386.69L2220.83 383.19C2219.5 360.523 2218.83 314.69 2226.83 312.69C2231.17 305.023 2243.73 289.59 2259.33 289.19C2270.33 284.69 2293.13 275.09 2296.33 272.69C2284.67 269.19 2259.33 258.09 2251.33 241.69C2245.17 233.19 2234.03 211.49 2238.83 192.69C2240.17 174.023 2242.83 136.09 2242.83 133.69V79.1899C2244.67 75.8565 2249.93 71.1899 2256.33 79.1899V91.6899L2439.33 90.1899V60.1899H2230.83C2216.67 51.1899 2196.83 27.9899 2230.83 7.18987H2465.33C2478.17 13.6899 2496.13 33.3899 2465.33 60.1899H2452.83V125.69C2453 146.357 2454.03 188.79 2456.83 193.19C2457.83 206.023 2454.93 235.79 2435.33 252.19L2417.33 267.19C2413 266.19 2405.63 262.79 2410.83 257.19C2419.5 251.523 2438.23 234.89 2443.83 213.69C2444.83 206.357 2446.53 190.99 2445.33 188.19C2442.83 171.023 2438.13 135.79 2439.33 132.19V104.69H2254.33V133.69C2253.17 153.023 2250.43 191.99 2248.83 193.19C2246.83 194.69 2254.33 231.19 2264.33 238.19C2271.5 246.523 2289.73 262.99 2305.33 262.19C2307.17 260.523 2311.53 257.19 2314.33 257.19C2316.67 258.69 2320.63 262.79 2317.83 267.19L2312.83 272.69C2320.67 280.69 2338.73 296.49 2348.33 295.69L2363.83 289.19C2366.83 288.023 2372.93 287.39 2373.33 294.19C2373.17 295.357 2371.93 298.29 2368.33 300.69C2362.33 303.357 2349.93 308.49 2348.33 307.69C2346.33 306.69 2330.33 308.19 2305.33 282.69L2285.33 292.19C2300.33 304.857 2332.13 329.69 2339.33 327.69C2346.67 328.523 2366.93 326.39 2389.33 311.19C2395.17 306.19 2406.93 295.79 2407.33 294.19C2407.73 292.59 2412.5 284.857 2414.83 281.19C2428.17 284.357 2457.03 294.09 2465.83 307.69C2469 311.357 2475.33 321.39 2475.33 332.19V378.69C2473.17 381.69 2467.63 385.89 2462.83 378.69V327.69C2460.5 322.19 2454.43 310.49 2448.83 307.69C2440 303.19 2421.83 294.49 2419.83 295.69C2407.67 310.523 2377.53 339.89 2354.33 338.69V378.69H2427.83C2446.33 392.69 2489.83 412.29 2515.83 378.69C2525 373.19 2546.53 365.49 2559.33 378.69C2567.67 388.357 2587.83 405.39 2601.83 396.19C2609 389.69 2625.73 377.69 2635.33 381.69C2642.83 386.357 2662.43 393.99 2680.83 387.19L2697.33 375.19V258.69H2660.83L2704.33 121.19H2697.33L2673.83 194.19C2672.33 199.69 2667.63 210.69 2660.83 210.69C2654.67 210.357 2643.43 206.09 2647.83 191.69L2666.83 132.69C2670.83 118.023 2681.53 87.9899 2692.33 85.1899C2698.33 81.1899 2712.23 73.7899 2719.83 76.1899H2724.83C2725.5 74.5232 2726.43 70.7899 2724.83 69.1899C2715.67 64.6899 2697.83 52.1899 2699.83 38.1899C2699.67 29.0232 2703.43 9.58987 2719.83 5.18987C2724.67 2.68987 2737.63 -0.310134 2750.83 7.68987C2757.83 11.8565 2770.43 25.4899 2764.83 46.6899C2761.83 54.1899 2752.43 69.1899 2738.83 69.1899C2738.67 71.5232 2739.13 76.1899 2742.33 76.1899C2747.5 75.8565 2758.93 75.9899 2763.33 79.1899C2770.33 81.6899 2786.03 91.9899 2792.83 113.19L2818.83 194.19C2820 198.357 2820.23 207.09 2811.83 208.69C2808.67 210.19 2800.93 211.69 2795.33 205.69L2768.33 121.19H2760.83L2805.33 258.69H2771.33L2769.33 371.69C2768.81 373.926 2766.93 378.363 2763.21 381.511M2763.21 381.511C2762.22 382.351 2761.1 383.1 2759.83 383.69M2763.21 381.511C2771.8 377.994 2794.65 372.494 2807.33 369.69C2816.16 388.33 2780.08 386.437 2759.51 383.841M2763.21 381.511C2761.08 382.383 2759.83 383.133 2759.83 383.69M2759.83 383.69C2759.72 383.742 2759.61 383.792 2759.51 383.841M2759.51 383.841C2753.92 386.429 2756.37 384.835 2758.33 383.69C2758.72 383.74 2759.11 383.791 2759.51 383.841Z" stroke="#FFC0CB" stroke-width="5"/>
</svg>
